<svg xmlns="http://www.w3.org/2000/svg"  viewBox="0 0 30 30" width="48px" height="48px"><path d="M 15.5 2 A 2.5 2.5 0 0 0 13.003906 4.3925781 L 8.0371094 7.53125 A 2.5 2.5 0 0 0 6.5 7 A 2.5 2.5 0 0 0 5 11.498047 L 5 18.503906 A 2.5 2.5 0 0 0 6.5 23 A 2.5 2.5 0 0 0 8.0371094 22.46875 L 13.003906 25.605469 A 2.5 2.5 0 0 0 15.5 28 A 2.5 2.5 0 0 0 17.996094 25.607422 L 22.962891 22.46875 A 2.5 2.5 0 0 0 24.5 23 A 2.5 2.5 0 0 0 26 18.501953 L 26 11.496094 A 2.5 2.5 0 0 0 24.5 7 A 2.5 2.5 0 0 0 22.962891 7.53125 L 17.996094 4.3945312 A 2.5 2.5 0 0 0 15.5 2 z M 12.708984 6.9472656 L 7 17.158203 L 7 11.949219 A 2.5 2.5 0 0 0 8.9882812 9.2949219 L 12.708984 6.9472656 z M 15 6.9472656 A 2.5 2.5 0 0 0 15.5 7 A 2.5 2.5 0 0 0 16.001953 6.9472656 L 22.642578 18.830078 A 2.5 2.5 0 0 0 22.054688 20 L 8.9472656 20 A 2.5 2.5 0 0 0 8.359375 18.828125 L 15 6.9472656 z M 18.292969 6.9472656 L 22.009766 9.2949219 A 2.5 2.5 0 0 0 24 11.947266 L 24 17.160156 L 18.292969 6.9472656 z M 11.039062 22 L 19.960938 22 L 17.248047 23.714844 A 2.5 2.5 0 0 0 15.5 23 A 2.5 2.5 0 0 0 13.753906 23.714844 L 11.039062 22 z"/></svg>